<?xml version="1.0" ?><svg height="48px" version="1.1" viewBox="0 0 48 48" width="48px" xmlns="http://www.w3.org/2000/svg" xmlns:xlink="http://www.w3.org/1999/xlink"><defs/><path d="M12,33.6998088 L23.2441709,24.0014277 L12,14.3014521 L12,33.6998088 Z M12.5447118,38.5123288 C10.0347368,40.6772455 8,39.7513811 8,36.4273425 L8,11.5729806 C8,8.25655768 10.0295293,7.31887383 12.5447118,9.48863882 L27.101626,22.046409 C28.3534004,23.1262736 28.3519083,24.8782229 27.101626,25.9566229 L12.5447118,38.5123288 Z" fill="#000000" fill-rule="nonzero" id="Path-1"/><path d="M20.0301874,37.098574 C20.2912018,39.86723 22.2128683,40.5236026 24.5447118,38.5123288 L39.101626,25.9566229 C40.3519083,24.8782229 40.3534004,23.1262736 39.101626,22.046409 L24.5447118,9.48863882 C22.2109994,7.4754221 20.2953887,8.13742629 20.0311149,10.8925641 L29.0230042,18.6648131 L35.2092285,23.9919717 L25.2334467,32.5824412 L20.0301874,37.098574 Z" fill="#000000" id="Path"/></svg>